Coordinates
version=1
nRows=11
nColumns=46
inDegrees=yes

Units are S.I. units (second, meters, Newtons, ...)
Angles are in degrees.

endheader
time	pelvis_tilt	pelvis_list	pelvis_rotation	pelvis_tx	pelvis_ty	pelvis_tz	bb_angle	bb_tx	bb_ty	bb_tz	hip_flexion_r	hip_adduction_r	hip_rotation_r	knee_angle_r	knee_angle_r_beta	ankle_angle_r	subtalar_angle_r	mtp_angle_r	crank_angle_r	hip_flexion_l	hip_adduction_l	hip_rotation_l	knee_angle_l	knee_angle_l_beta	ankle_angle_l	subtalar_angle_l	mtp_angle_l	crank_angle_l	lumbar_extension	lumbar_bending	lumbar_rotation	arm_flex_r	arm_add_r	arm_rot_r	elbow_flex_r	pro_sup_r	wrist_flex_r	wrist_dev_r	arm_flex_l	arm_add_l	arm_rot_l	elbow_flex_l	pro_sup_l	wrist_flex_l	wrist_dev_l
      5.00000000	    -21.48678120	     -4.60884373	      5.46318532	      0.44009455	      1.20024312	     -0.21511234	      0.00000000	      0.50000000	      0.00000000	      0.25000000	     53.95561536	     -6.07297860	     -5.28830291	     94.02159362	      1.64098638	     -5.39791574	     -1.90880884	      0.00000000	      0.00000000	     44.56228874	     -9.23528159	      0.36081661	     44.69112867	      0.78000734	      2.39844058	      4.58102370	      0.00000000	      0.00000000	    -59.89176908	      5.61035965	      0.59052743	     42.21144812	    -20.53335054	     20.51097910	     80.90577842	     48.29663854	      0.00000000	      0.00000000	     41.02844550	    -34.39279451	     25.80220286	     84.65233260	     50.57546829	      0.00000000	      0.00000000
      5.00500000	    -21.29371572	     -4.72108200	      5.21143114	      0.43986730	      1.19922023	     -0.21570788	      0.00000000	      0.50000000	      0.00000000	      0.25000000	     55.16465332	     -6.10572803	     -5.06911996	     95.99830299	      1.67548646	     -4.23622376	     -1.31105182	      0.00000000	      0.00000000	     43.04840048	     -9.38272848	      0.19512010	     42.77654558	      0.74659156	      0.31301733	      4.15397656	      0.00000000	      0.00000000	    -59.80792133	      5.84979790	      0.62619363	     42.53342550	    -20.49194585	     21.14100297	     80.58704123	     48.30948995	      0.00000000	      0.00000000	     40.40580146	    -33.97799747	     25.09114605	     84.24993010	     50.42306740	      0.00000000	      0.00000000
      5.01000000	    -21.19725084	     -5.21477430	      4.89998558	      0.43973185	      1.19831419	     -0.21623205	      0.00000000	      0.50000000	      0.00000000	      0.25000000	     56.40055595	     -5.78510774	     -5.19879662	     97.70559575	      1.70528434	     -3.42056770	     -1.25002654	      0.00000000	      0.00000000	     41.78232538	     -9.95427906	      0.13895460	     41.04531139	      0.71637583	     -1.50301094	      4.30544308	      0.00000000	      0.00000000	    -59.63299827	      6.39925289	      0.59015020	     43.66040977	    -20.26590270	     22.74895602	     79.42289002	     48.32191650	      0.00000000	      0.00000000	     38.61645945	    -32.99048080	     22.27112180	     84.24317413	     50.15096230	      0.00000000	      0.00000000
      5.01500000	    -21.01739579	     -5.59089281	      4.89502093	      0.43909963	      1.19744402	     -0.21601749	      0.00000000	      0.50000000	      0.00000000	      0.25000000	     57.59218598	     -5.67948017	     -5.42713483	     99.42596761	      1.73531050	     -2.54453751	     -1.43072201	      0.00000000	      0.00000000	     40.54710576	    -10.34824685	      0.21026015	     39.41297782	      0.68788623	     -3.33910146	      4.88186816	      0.00000000	      0.00000000	    -59.56447040	      6.95073338	      0.87221948	     43.81561729	    -20.14631999	     22.83348565	     79.40922419	     48.32233475	      0.00000000	      0.00000000	     38.32463309	    -32.97796544	     22.19025858	     84.14316925	     50.12047282	      0.00000000	      0.00000000
      5.02000000	    -20.72118017	     -5.68043883	      4.30896302	      0.43901307	      1.19741098	     -0.21690477	      0.00000000	      0.50000000	      0.00000000	      0.25000000	     58.69766293	     -5.43696887	     -4.99507906	    100.96080975	      1.76209855	     -1.73039476	     -0.95056231	      0.00000000	      0.00000000	     38.77494764	    -10.69302749	     -0.32982735	     37.56709352	      0.65566947	     -5.28640160	      4.73357803	      0.00000000	      0.00000000	    -59.70494531	      7.20441330	      0.17825456	     45.71821096	    -19.31569908	     25.16583688	     77.43459328	     48.30571611	      0.00000000	      0.00000000	     36.25161017	    -33.41390674	     19.64818528	     84.78027957	     50.04144377	      0.00000000	      0.00000000
      5.02500000	    -20.57911011	     -5.71853515	      3.34700409	      0.43914787	      1.19725652	     -0.21524075	      0.00000000	      0.50000000	      0.00000000	      0.25000000	     60.05806348	     -4.61832629	     -4.38972401	    102.44357904	      1.78797775	     -1.01329002	     -0.90661091	      0.00000000	      0.00000000	     37.10651320	    -11.48696217	     -1.50398749	     35.80308359	      0.62488169	     -7.28513151	      5.83504622	      0.00000000	      0.00000000	    -59.77743876	      6.70261024	      0.54827807	     46.01576039	    -19.08658162	     25.45988853	     77.16826652	     48.31480911	      0.00000000	      0.00000000	     36.53682335	    -35.82880308	     21.70645806	     85.06582322	     50.29908252	      0.00000000	      0.00000000
      5.03000000	    -20.45507569	     -5.84708510	      2.89453458	      0.43908699	      1.19707859	     -0.21522792	      0.00000000	      0.50000000	      0.00000000	      0.25000000	     61.34912065	     -4.39857978	     -4.20223939	    103.82478654	      1.81208437	     -0.32881522	     -0.72631795	      0.00000000	      0.00000000	     35.61766438	    -11.86985523	     -2.01868304	     34.13153565	      0.59570768	     -9.07393086	      6.21724681	      0.00000000	      0.00000000	    -59.78669908	      6.79648080	      0.90896354	     46.25151467	    -19.16951557	     25.71742006	     77.10857252	     48.33524110	      0.00000000	      0.00000000	     36.37840355	    -35.83357571	     21.70433102	     84.67567010	     50.22766789	      0.00000000	      0.00000000
      5.03500000	    -20.26671584	     -5.95745352	      2.48906658	      0.43917623	      1.19728225	     -0.21545604	      0.00000000	      0.50000000	      0.00000000	      0.25000000	     62.42589572	     -4.15560130	     -4.00959158	    105.01069942	      1.83278245	      0.48037203	     -0.50788052	      0.00000000	      0.00000000	     34.07242426	    -12.23348074	     -2.62145492	     32.51019468	      0.56740994	    -10.94620159	      6.70187941	      0.00000000	      0.00000000	    -59.89044968	      6.94930909	      1.22408038	     46.59161168	    -19.28205928	     26.05812808	     77.04573255	     48.36145170	      0.00000000	      0.00000000	     36.20861467	    -35.75040774	     21.61793873	     84.24814620	     50.14411993	      0.00000000	      0.00000000
      5.04000000	    -20.17521421	     -6.10512824	      2.01786915	      0.43910342	      1.19752941	     -0.21535725	      0.00000000	      0.50000000	      0.00000000	      0.25000000	     63.67306124	     -3.87813202	     -3.88519706	    106.05719313	      1.85104722	      0.90685780	     -0.35762852	      0.00000000	      0.00000000	     32.65922667	    -12.66218556	     -3.17112721	     30.96516432	      0.54044407	    -12.83363782	      7.34132574	      0.00000000	      0.00000000	    -59.94587075	      7.06127849	      1.62661343	     46.97142823	    -19.37266012	     26.41313405	     77.02715106	     48.39324878	      0.00000000	      0.00000000	     36.01344864	    -35.70100937	     21.51674508	     83.84306585	     50.06402898	      0.00000000	      0.00000000
      5.04500000	    -19.92236950	     -6.00121303	      1.43421058	      0.43924743	      1.19825094	     -0.21504871	      0.00000000	      0.50000000	      0.00000000	      0.25000000	     64.74143055	     -3.64451011	     -3.49459582	    107.00792846	      1.86764068	      1.39997927	     -0.15772922	      0.00000000	      0.00000000	     30.94276308	    -12.93497235	     -4.06608736	     29.39088103	      0.51296764	    -14.50816850	      8.12093881	      0.00000000	      0.00000000	    -60.20857629	      6.90524765	      1.84927247	     47.48634628	    -19.60048727	     27.11162418	     76.90403564	     48.45025670	      0.00000000	      0.00000000	     35.97611463	    -35.62952024	     21.27762759	     83.26090183	     49.94498440	      0.00000000	      0.00000000
      5.05000000	    -19.96659326	     -6.25741045	      1.11476289	      0.43902902	      1.19861247	     -0.21532450	      0.00000000	      0.50000000	      0.00000000	      0.25000000	     66.06631047	     -3.53296416	     -3.63183032	    107.76466539	      1.88084823	      1.68809498	     -0.03707284	      0.00000000	      0.00000000	     29.86517272	    -13.32328401	     -4.24027897	     28.13225985	      0.49100056	    -16.10991035	      8.85302774	      0.00000000	      0.00000000	    -60.20771367	      7.24384631	      2.25149228	     47.96516725	    -19.69111675	     27.30665758	     76.95198222	     48.47606344	      0.00000000	      0.00000000	     35.84485292	    -35.66451585	     21.21517791	     83.00842807	     49.89993399	      0.00000000	      0.00000000
